<svg xmlns="http://www.w3.org/2000/svg" xmlns:xlink="http://www.w3.org/1999/xlink" viewBox="0 0 951.41 713.56"><defs><style>.cls-1,.cls-11{fill:none;}.cls-2{isolation:isolate;}.cls-3{clip-path:url(#clip-path);}.cls-100,.cls-101,.cls-102,.cls-103,.cls-107,.cls-12,.cls-13,.cls-14,.cls-15,.cls-18,.cls-23,.cls-24,.cls-25,.cls-26,.cls-30,.cls-35,.cls-36,.cls-37,.cls-38,.cls-4,.cls-42,.cls-5,.cls-50,.cls-51,.cls-52,.cls-53,.cls-57,.cls-6,.cls-62,.cls-63,.cls-64,.cls-65,.cls-69,.cls-7,.cls-75,.cls-76,.cls-77,.cls-78,.cls-82,.cls-88,.cls-89,.cls-90,.cls-91,.cls-95{mix-blend-mode:multiply;}.cls-4{opacity:0.4;fill:url(#radial-gradient);}.cls-5{fill:url(#radial-gradient-2);}.cls-6{fill:url(#radial-gradient-3);}.cls-103,.cls-107,.cls-11,.cls-111,.cls-15,.cls-18,.cls-22,.cls-26,.cls-30,.cls-34,.cls-38,.cls-42,.cls-49,.cls-53,.cls-57,.cls-61,.cls-65,.cls-69,.cls-7,.cls-74,.cls-78,.cls-82,.cls-87,.cls-91,.cls-95,.cls-99{opacity:0.5;}.cls-7{fill:url(#linear-gradient);}.cls-10,.cls-108,.cls-110,.cls-19,.cls-21,.cls-31,.cls-33,.cls-43,.cls-47,.cls-58,.cls-60,.cls-70,.cls-72,.cls-8,.cls-83,.cls-85,.cls-96,.cls-98{mix-blend-mode:color-dodge;}.cls-8{fill:url(#linear-gradient-2);}.cls-105,.cls-106,.cls-109,.cls-17,.cls-20,.cls-28,.cls-29,.cls-32,.cls-40,.cls-41,.cls-44,.cls-45,.cls-46,.cls-48,.cls-55,.cls-56,.cls-59,.cls-67,.cls-68,.cls-71,.cls-73,.cls-80,.cls-81,.cls-84,.cls-86,.cls-9,.cls-93,.cls-94,.cls-97{mix-blend-mode:screen;}.cls-9{fill:url(#radial-gradient-4);}.cls-10{fill:url(#radial-gradient-5);}.cls-104,.cls-11,.cls-111,.cls-16,.cls-22,.cls-27,.cls-34,.cls-39,.cls-49,.cls-54,.cls-61,.cls-66,.cls-74,.cls-79,.cls-87,.cls-92,.cls-99{mix-blend-mode:color-burn;}.cls-12{fill:url(#radial-gradient-6);}.cls-13{fill:url(#radial-gradient-7);}.cls-14{fill:url(#radial-gradient-8);}.cls-15{fill:url(#radial-gradient-9);}.cls-16{fill:url(#radial-gradient-10);}.cls-105,.cls-106,.cls-17,.cls-28,.cls-29,.cls-40,.cls-41,.cls-55,.cls-56,.cls-67,.cls-68,.cls-80,.cls-81,.cls-93,.cls-94{opacity:0.9;}.cls-17{fill:url(#radial-gradient-11);}.cls-18{fill:url(#linear-gradient-3);}.cls-19{fill:url(#linear-gradient-4);}.cls-20{fill:url(#radial-gradient-12);}.cls-21{fill:url(#radial-gradient-13);}.cls-22{fill:url(#radial-gradient-14);}.cls-23{fill:url(#radial-gradient-15);}.cls-24{fill:url(#radial-gradient-16);}.cls-25{fill:url(#radial-gradient-17);}.cls-26{fill:url(#radial-gradient-18);}.cls-27{fill:url(#radial-gradient-19);}.cls-28{fill:url(#radial-gradient-20);}.cls-29{fill:url(#radial-gradient-21);}.cls-30{fill:url(#linear-gradient-5);}.cls-31{fill:url(#linear-gradient-6);}.cls-32{fill:url(#radial-gradient-22);}.cls-33{fill:url(#radial-gradient-23);}.cls-34{fill:url(#radial-gradient-24);}.cls-35{fill:url(#radial-gradient-25);}.cls-36{fill:url(#radial-gradient-26);}.cls-37{fill:url(#radial-gradient-27);}.cls-38{fill:url(#radial-gradient-28);}.cls-39{fill:url(#radial-gradient-29);}.cls-40{fill:url(#radial-gradient-30);}.cls-41{fill:url(#radial-gradient-31);}.cls-42{fill:url(#linear-gradient-7);}.cls-43{fill:url(#linear-gradient-8);}.cls-44{fill:url(#radial-gradient-32);}.cls-45{fill:url(#radial-gradient-33);}.cls-46{fill:url(#radial-gradient-34);}.cls-47{fill:url(#radial-gradient-35);}.cls-48{fill:url(#radial-gradient-36);}.cls-49{fill:url(#radial-gradient-37);}.cls-50{fill:url(#radial-gradient-38);}.cls-51{fill:url(#radial-gradient-39);}.cls-52{fill:url(#radial-gradient-40);}.cls-53{fill:url(#radial-gradient-41);}.cls-54{fill:url(#radial-gradient-42);}.cls-55{fill:url(#radial-gradient-43);}.cls-56{fill:url(#radial-gradient-44);}.cls-57{fill:url(#linear-gradient-9);}.cls-58{fill:url(#linear-gradient-10);}.cls-59{fill:url(#radial-gradient-45);}.cls-60{fill:url(#radial-gradient-46);}.cls-61{fill:url(#radial-gradient-47);}.cls-62{fill:url(#radial-gradient-48);}.cls-63{fill:url(#radial-gradient-49);}.cls-64{fill:url(#radial-gradient-50);}.cls-65{fill:url(#radial-gradient-51);}.cls-66{fill:url(#radial-gradient-52);}.cls-67{fill:url(#radial-gradient-53);}.cls-68{fill:url(#radial-gradient-54);}.cls-69{fill:url(#linear-gradient-11);}.cls-70{fill:url(#linear-gradient-12);}.cls-71{fill:url(#radial-gradient-55);}.cls-72{fill:url(#radial-gradient-56);}.cls-73{fill:url(#radial-gradient-57);}.cls-74{fill:url(#radial-gradient-58);}.cls-75{fill:url(#radial-gradient-59);}.cls-76{fill:url(#radial-gradient-60);}.cls-77{fill:url(#radial-gradient-61);}.cls-78{fill:url(#radial-gradient-62);}.cls-79{fill:url(#radial-gradient-63);}.cls-80{fill:url(#radial-gradient-64);}.cls-81{fill:url(#radial-gradient-65);}.cls-82{fill:url(#linear-gradient-13);}.cls-83{fill:url(#linear-gradient-14);}.cls-84{fill:url(#radial-gradient-66);}.cls-85{fill:url(#radial-gradient-67);}.cls-86{fill:url(#radial-gradient-68);}.cls-87{fill:url(#radial-gradient-69);}.cls-88{fill:url(#radial-gradient-70);}.cls-89{fill:url(#radial-gradient-71);}.cls-90{fill:url(#radial-gradient-72);}.cls-91{fill:url(#radial-gradient-73);}.cls-92{fill:url(#radial-gradient-74);}.cls-93{fill:url(#radial-gradient-75);}.cls-94{fill:url(#radial-gradient-76);}.cls-95{fill:url(#linear-gradient-15);}.cls-96{fill:url(#linear-gradient-16);}.cls-97{fill:url(#radial-gradient-77);}.cls-98{fill:url(#radial-gradient-78);}.cls-99{fill:url(#radial-gradient-79);}.cls-100{fill:url(#radial-gradient-80);}.cls-101{fill:url(#radial-gradient-81);}.cls-102{fill:url(#radial-gradient-82);}.cls-103{fill:url(#radial-gradient-83);}.cls-104{fill:url(#radial-gradient-84);}.cls-105{fill:url(#radial-gradient-85);}.cls-106{fill:url(#radial-gradient-86);}.cls-107{fill:url(#linear-gradient-17);}.cls-108{fill:url(#linear-gradient-18);}.cls-109{fill:url(#radial-gradient-87);}.cls-110{fill:url(#radial-gradient-88);}.cls-111{fill:url(#radial-gradient-89);}</style><clipPath id="clip-path" transform="translate(285.78 194.29)"><circle class="cls-1" cx="146.8" cy="155.91" r="76.41"/></clipPath><radialGradient id="radial-gradient" cx="369.11" cy="3481.65" r="108" gradientTransform="translate(-9.84 -630.28) scale(1.21 0.31)" gradientUnits="userSpaceOnUse"><stop offset="0" stop-color="#cda6c5"/><stop offset="0.21" stop-color="#c9c3ec"/><stop offset="0.33" stop-color="#c7d1ff"/><stop offset="0.59" stop-color="#e4e9ff"/><stop offset="0.84" stop-color="#f8f9ff"/><stop offset="1" stop-color="#fff"/></radialGradient><radialGradient id="radial-gradient-2" cx="134.49" cy="177.88" r="106.61" gradientUnits="userSpaceOnUse"><stop offset="0.53" stop-color="#fff"/><stop offset="0.72" stop-color="#fafafa"/><stop offset="0.93" stop-color="#ececec"/><stop offset="1" stop-color="#e6e6e6"/></radialGradient><radialGradient id="radial-gradient-3" cx="150.15" cy="140.49" r="104.64" gradientUnits="userSpaceOnUse"><stop offset="0.53" stop-color="#fff"/><stop offset="0.64" stop-color="#fffafe"/><stop offset="0.77" stop-color="#ffecfc"/><stop offset="0.9" stop-color="#ffd5f8"/><stop offset="1" stop-color="#ffbff5"/></radialGradient><linearGradient id="linear-gradient" x1="130.56" y1="166.69" x2="-19.62" y2="222.4" gradientUnits="userSpaceOnUse"><stop offset="0" stop-color="#fff"/><stop offset="0.08" stop-color="#e5e5e5"/><stop offset="0.34" stop-color="#949494"/><stop offset="0.57" stop-color="#555"/><stop offset="0.77" stop-color="#272727"/><stop offset="0.91" stop-color="#0b0b0b"/><stop offset="1"/></linearGradient><linearGradient id="linear-gradient-2" x1="146.8" y1="62.84" x2="146.8" y2="158.65" gradientUnits="userSpaceOnUse"><stop offset="0" stop-color="#303030"/><stop offset="0.16" stop-color="#272727"/><stop offset="0.69" stop-color="#0a0a0a"/><stop offset="1"/></linearGradient><radialGradient id="radial-gradient-4" cx="481.58" cy="386.15" r="16.34" gradientUnits="userSpaceOnUse"><stop offset="0" stop-color="#fff"/><stop offset="0.12" stop-color="#cfcfcf"/><stop offset="0.3" stop-color="#919191"/><stop offset="0.48" stop-color="#5d5d5d"/><stop offset="0.64" stop-color="#353535"/><stop offset="0.78" stop-color="#181818"/><stop offset="0.91" stop-color="#060606"/><stop offset="1"/></radialGradient><radialGradient id="radial-gradient-5" cx="199.34" cy="136.53" r="16.34" gradientTransform="translate(3.66 -5.19) rotate(1.51)" gradientUnits="userSpaceOnUse"><stop offset="0" stop-color="#212121"/><stop offset="0.19" stop-color="#181818"/><stop offset="0.66" stop-color="#060606"/><stop offset="1"/></radialGradient><radialGradient id="radial-gradient-6" cx="224.74" cy="165.75" r="39.78" xlink:href="#radial-gradient-2"/><radialGradient id="radial-gradient-7" cx="230.59" cy="151.8" r="39.04" xlink:href="#radial-gradient-3"/><radialGradient id="radial-gradient-8" cx="238.32" cy="154.44" r="39.04" gradientUnits="userSpaceOnUse"><stop offset="0.53" stop-color="#fff"/><stop offset="0.63" stop-color="#fffafb"/><stop offset="0.74" stop-color="#ffecef"/><stop offset="0.86" stop-color="#ffd4db"/><stop offset="0.98" stop-color="#ffb4bf"/><stop offset="1" stop-color="#ffaeba"/></radialGradient><radialGradient id="radial-gradient-9" cx="232.28" cy="150.17" r="34.58" gradientUnits="userSpaceOnUse"><stop offset="0.41" stop-color="#fff"/><stop offset="0.46" stop-color="#fafdff"/><stop offset="0.52" stop-color="#ecf6ff"/><stop offset="0.58" stop-color="#d4ebff"/><stop offset="0.65" stop-color="#b4dcff"/><stop offset="0.72" stop-color="#89c8ff"/><stop offset="0.78" stop-color="#56b0ff"/><stop offset="0.81" stop-color="#44a8ff"/><stop offset="0.83" stop-color="#4dacff"/><stop offset="0.86" stop-color="#65b7ff"/><stop offset="0.9" stop-color="#8bc9ff"/><stop offset="0.95" stop-color="#c1e2ff"/><stop offset="1" stop-color="#fff"/></radialGradient><radialGradient id="radial-gradient-10" cx="233.23" cy="154.44" r="33.77" gradientUnits="userSpaceOnUse"><stop offset="0.78" stop-color="#fff"/><stop offset="0.79" stop-color="#fafafa"/><stop offset="0.8" stop-color="#ececec"/><stop offset="0.81" stop-color="#d5d5d5"/><stop offset="0.82" stop-color="#c4c4c4"/></radialGradient><radialGradient id="radial-gradient-11" cx="214.81" cy="179.05" r="54.83" gradientUnits="userSpaceOnUse"><stop offset="0" stop-color="#fff"/><stop offset="0.01" stop-color="#f4f4f4"/><stop offset="0.09" stop-color="#c2c2c2"/><stop offset="0.17" stop-color="#949494"/><stop offset="0.26" stop-color="#6c6c6c"/><stop offset="0.34" stop-color="#4a4a4a"/><stop offset="0.44" stop-color="#2f2f2f"/><stop offset="0.54" stop-color="#1a1a1a"/><stop offset="0.66" stop-color="#0b0b0b"/><stop offset="0.79" stop-color="#030303"/><stop offset="1"/></radialGradient><linearGradient id="linear-gradient-3" x1="223.28" y1="161.58" x2="167.24" y2="182.36" xlink:href="#linear-gradient"/><linearGradient id="linear-gradient-4" x1="229.34" y1="122.83" x2="229.34" y2="158.58" xlink:href="#linear-gradient-2"/><radialGradient id="radial-gradient-12" cx="341.36" cy="346.35" r="15.8" gradientTransform="matrix(0.15, 1.36, -0.49, 0.05, 322.99, -320.98)" xlink:href="#radial-gradient-4"/><radialGradient id="radial-gradient-13" cx="248.94" cy="150.32" r="6.1" gradientTransform="matrix(1, 0, 0, 1, 0, 0)" xlink:href="#radial-gradient-5"/><radialGradient id="radial-gradient-14" cx="229.08" cy="158.06" r="28.85" gradientUnits="userSpaceOnUse"><stop offset="0.68" stop-color="#fff"/><stop offset="0.72" stop-color="#fafafa"/><stop offset="0.77" stop-color="#ececec"/><stop offset="0.82" stop-color="#d4d4d4"/><stop offset="0.88" stop-color="#b4b4b4"/><stop offset="0.93" stop-color="#898989"/><stop offset="0.99" stop-color="#565656"/><stop offset="1" stop-color="#4d4d4d"/></radialGradient><radialGradient id="radial-gradient-15" cx="77.53" cy="72.98" r="29.59" xlink:href="#radial-gradient-2"/><radialGradient id="radial-gradient-16" cx="81.87" cy="62.6" r="29.04" xlink:href="#radial-gradient-3"/><radialGradient id="radial-gradient-17" cx="87.62" cy="64.57" r="29.04" xlink:href="#radial-gradient-8"/><radialGradient id="radial-gradient-18" cx="83.13" cy="61.39" r="25.72" xlink:href="#radial-gradient-9"/><radialGradient id="radial-gradient-19" cx="83.84" cy="64.57" r="25.12" xlink:href="#radial-gradient-10"/><radialGradient id="radial-gradient-20" cx="89.02" cy="85.69" r="30.63" xlink:href="#radial-gradient-11"/><radialGradient id="radial-gradient-21" cx="70.14" cy="79.9" r="40.78" xlink:href="#radial-gradient-11"/><linearGradient id="linear-gradient-5" x1="76.44" y1="69.87" x2="34.76" y2="85.33" xlink:href="#linear-gradient"/><linearGradient id="linear-gradient-6" x1="80.94" y1="41.05" x2="80.94" y2="67.64" xlink:href="#linear-gradient-2"/><radialGradient id="radial-gradient-22" cx="94.54" cy="76.86" r="4.53" xlink:href="#radial-gradient-4"/><radialGradient id="radial-gradient-23" cx="95.52" cy="61.5" r="4.53" gradientTransform="matrix(1, 0, 0, 1, 0, 0)" xlink:href="#radial-gradient-5"/><radialGradient id="radial-gradient-24" cx="80.75" cy="67.26" r="21.46" xlink:href="#radial-gradient-14"/><radialGradient id="radial-gradient-25" cx="111.91" cy="146.96" r="19.39" xlink:href="#radial-gradient-2"/><radialGradient id="radial-gradient-26" cx="114.76" cy="140.16" r="19.04" xlink:href="#radial-gradient-3"/><radialGradient id="radial-gradient-27" cx="118.53" cy="141.45" r="19.04" xlink:href="#radial-gradient-8"/><radialGradient id="radial-gradient-28" cx="115.59" cy="139.37" r="16.86" xlink:href="#radial-gradient-9"/><radialGradient id="radial-gradient-29" cx="116.05" cy="141.45" r="16.46" xlink:href="#radial-gradient-10"/><radialGradient id="radial-gradient-30" cx="119.45" cy="155.3" r="20.08" xlink:href="#radial-gradient-11"/><radialGradient id="radial-gradient-31" cx="107.07" cy="151.5" r="26.73" xlink:href="#radial-gradient-11"/><linearGradient id="linear-gradient-7" x1="111.2" y1="144.93" x2="83.88" y2="155.06" xlink:href="#linear-gradient"/><linearGradient id="linear-gradient-8" x1="114.16" y1="126.04" x2="114.16" y2="143.47" xlink:href="#linear-gradient-2"/><radialGradient id="radial-gradient-32" cx="180.62" cy="261.34" r="4.38" gradientTransform="translate(-132.62 0.46) scale(1.37 0.49)" xlink:href="#radial-gradient-4"/><radialGradient id="radial-gradient-33" cx="321.04" cy="547.31" r="7.7" gradientTransform="matrix(0.15, 1.36, -0.49, 0.05, 322.99, -320.98)" xlink:href="#radial-gradient-4"/><radialGradient id="radial-gradient-34" cx="123.07" cy="149.51" r="2.97" xlink:href="#radial-gradient-4"/><radialGradient id="radial-gradient-35" cx="123.71" cy="139.44" r="2.97" gradientTransform="matrix(1, 0, 0, 1, 0, 0)" xlink:href="#radial-gradient-5"/><radialGradient id="radial-gradient-36" cx="125.08" cy="143.62" r="4.82" gradientUnits="userSpaceOnUse"><stop offset="0" stop-color="#f7f7f7"/><stop offset="0.01" stop-color="#ececec"/><stop offset="0.09" stop-color="#bbb"/><stop offset="0.16" stop-color="#8e8e8e"/><stop offset="0.24" stop-color="#686868"/><stop offset="0.33" stop-color="#484848"/><stop offset="0.42" stop-color="#2d2d2d"/><stop offset="0.52" stop-color="#191919"/><stop offset="0.63" stop-color="#0b0b0b"/><stop offset="0.77" stop-color="#030303"/><stop offset="1"/></radialGradient><radialGradient id="radial-gradient-37" cx="114.03" cy="143.21" r="14.07" xlink:href="#radial-gradient-14"/><radialGradient id="radial-gradient-38" cx="120.22" cy="43.35" r="17.24" xlink:href="#radial-gradient-2"/><radialGradient id="radial-gradient-39" cx="122.75" cy="37.3" r="16.92" xlink:href="#radial-gradient-3"/><radialGradient id="radial-gradient-40" cx="126.1" cy="38.44" r="16.92" xlink:href="#radial-gradient-8"/><radialGradient id="radial-gradient-41" cx="123.49" cy="36.59" r="14.99" xlink:href="#radial-gradient-9"/><radialGradient id="radial-gradient-42" cx="123.9" cy="38.44" r="14.64" xlink:href="#radial-gradient-10"/><radialGradient id="radial-gradient-43" cx="126.92" cy="50.75" r="17.85" xlink:href="#radial-gradient-11"/><radialGradient id="radial-gradient-44" cx="115.92" cy="47.38" r="23.76" xlink:href="#radial-gradient-11"/><linearGradient id="linear-gradient-9" x1="119.58" y1="41.54" x2="95.3" y2="50.54" xlink:href="#linear-gradient"/><linearGradient id="linear-gradient-10" x1="122.21" y1="24.74" x2="122.21" y2="40.24" xlink:href="#linear-gradient-2"/><radialGradient id="radial-gradient-45" cx="130.14" cy="45.61" r="2.64" xlink:href="#radial-gradient-4"/><radialGradient id="radial-gradient-46" cx="416.49" cy="230.95" r="2.64" gradientTransform="matrix(1, 0, 0, 1, 0, 0)" xlink:href="#radial-gradient-5"/><radialGradient id="radial-gradient-47" cx="122.1" cy="40.01" r="12.5" xlink:href="#radial-gradient-14"/><radialGradient id="radial-gradient-48" cx="78.93" cy="206.38" r="59.28" xlink:href="#radial-gradient-2"/><radialGradient id="radial-gradient-49" cx="87.64" cy="185.59" r="58.19" xlink:href="#radial-gradient-3"/><radialGradient id="radial-gradient-50" cx="99.15" cy="189.52" r="58.18" xlink:href="#radial-gradient-8"/><radialGradient id="radial-gradient-51" cx="90.16" cy="183.15" r="51.53" xlink:href="#radial-gradient-9"/><radialGradient id="radial-gradient-52" cx="91.57" cy="189.52" r="50.32" xlink:href="#radial-gradient-10"/><radialGradient id="radial-gradient-53" cx="101.96" cy="231.85" r="61.36" xlink:href="#radial-gradient-11"/><radialGradient id="radial-gradient-54" cx="64.13" cy="220.24" r="81.71" xlink:href="#radial-gradient-11"/><linearGradient id="linear-gradient-11" x1="76.74" y1="200.16" x2="-6.77" y2="231.13" xlink:href="#linear-gradient"/><linearGradient id="linear-gradient-12" x1="85.77" y1="142.41" x2="85.77" y2="195.69" xlink:href="#linear-gradient-2"/><radialGradient id="radial-gradient-55" cx="113.02" cy="214.15" r="9.09" gradientTransform="translate(321.74 91.54) rotate(87.4)" xlink:href="#radial-gradient-4"/><radialGradient id="radial-gradient-56" cx="114.99" cy="183.39" r="9.09" gradientTransform="translate(292.89 60.21) rotate(87.4)" xlink:href="#radial-gradient-5"/><radialGradient id="radial-gradient-57" cx="404.96" cy="390.46" r="14.75" xlink:href="#radial-gradient-36"/><radialGradient id="radial-gradient-58" cx="85.39" cy="194.91" r="42.99" xlink:href="#radial-gradient-14"/><radialGradient id="radial-gradient-59" cx="134.52" cy="98.64" r="43.54" xlink:href="#radial-gradient-2"/><radialGradient id="radial-gradient-60" cx="140.92" cy="83.37" r="42.73" xlink:href="#radial-gradient-3"/><radialGradient id="radial-gradient-61" cx="149.37" cy="86.26" r="42.73" xlink:href="#radial-gradient-8"/><radialGradient id="radial-gradient-62" cx="142.77" cy="81.58" r="37.84" xlink:href="#radial-gradient-9"/><radialGradient id="radial-gradient-63" cx="143.8" cy="86.26" r="36.96" xlink:href="#radial-gradient-10"/><radialGradient id="radial-gradient-64" cx="151.44" cy="117.34" r="45.07" xlink:href="#radial-gradient-11"/><radialGradient id="radial-gradient-65" cx="123.65" cy="108.82" r="60.01" xlink:href="#radial-gradient-11"/><linearGradient id="linear-gradient-13" x1="132.92" y1="94.07" x2="71.59" y2="116.81" xlink:href="#linear-gradient"/><linearGradient id="linear-gradient-14" x1="139.55" y1="51.66" x2="139.55" y2="90.78" xlink:href="#linear-gradient-2"/><radialGradient id="radial-gradient-66" cx="445.34" cy="298.64" r="6.67" xlink:href="#radial-gradient-4"/><radialGradient id="radial-gradient-67" cx="161" cy="81.75" r="6.67" gradientTransform="matrix(1, 0, 0, 1, 0, 0)" xlink:href="#radial-gradient-5"/><radialGradient id="radial-gradient-68" cx="449.86" cy="285.43" r="10.83" xlink:href="#radial-gradient-36"/><radialGradient id="radial-gradient-69" cx="139.26" cy="90.22" r="31.57" xlink:href="#radial-gradient-14"/><radialGradient id="radial-gradient-70" cx="231.95" cy="103.9" r="8.74" xlink:href="#radial-gradient-2"/><radialGradient id="radial-gradient-71" cx="233.24" cy="100.83" r="8.58" xlink:href="#radial-gradient-3"/><radialGradient id="radial-gradient-72" cx="234.94" cy="101.41" r="8.58" xlink:href="#radial-gradient-8"/><radialGradient id="radial-gradient-73" cx="233.61" cy="100.47" r="7.6" xlink:href="#radial-gradient-9"/><radialGradient id="radial-gradient-74" cx="233.82" cy="101.41" r="7.42" xlink:href="#radial-gradient-10"/><radialGradient id="radial-gradient-75" cx="235.35" cy="107.66" r="9.05" xlink:href="#radial-gradient-11"/><radialGradient id="radial-gradient-76" cx="229.77" cy="105.94" r="12.05" xlink:href="#radial-gradient-11"/><linearGradient id="linear-gradient-15" x1="231.63" y1="102.98" x2="219.31" y2="107.55" xlink:href="#linear-gradient"/><linearGradient id="linear-gradient-16" x1="232.96" y1="94.46" x2="232.96" y2="102.32" xlink:href="#linear-gradient-2"/><radialGradient id="radial-gradient-77" cx="236.98" cy="105.04" r="1.34" xlink:href="#radial-gradient-4"/><radialGradient id="radial-gradient-78" cx="237.27" cy="100.51" r="1.34" gradientTransform="matrix(1, 0, 0, 1, 0, 0)" xlink:href="#radial-gradient-5"/><radialGradient id="radial-gradient-79" cx="232.91" cy="102.21" r="6.34" xlink:href="#radial-gradient-14"/><radialGradient id="radial-gradient-80" cx="238.7" cy="135.87" r="20.67" xlink:href="#radial-gradient-2"/><radialGradient id="radial-gradient-81" cx="241.74" cy="128.62" r="20.29" xlink:href="#radial-gradient-3"/><radialGradient id="radial-gradient-82" cx="245.75" cy="129.99" r="20.29" xlink:href="#radial-gradient-8"/><radialGradient id="radial-gradient-83" cx="242.62" cy="127.77" r="17.97" xlink:href="#radial-gradient-9"/><radialGradient id="radial-gradient-84" cx="243.11" cy="129.99" r="17.55" xlink:href="#radial-gradient-10"/><radialGradient id="radial-gradient-85" cx="246.73" cy="144.75" r="21.39" xlink:href="#radial-gradient-11"/><radialGradient id="radial-gradient-86" cx="233.54" cy="140.7" r="28.49" xlink:href="#radial-gradient-11"/><linearGradient id="linear-gradient-17" x1="237.94" y1="133.7" x2="208.82" y2="144.5" xlink:href="#linear-gradient"/><linearGradient id="linear-gradient-18" x1="241.09" y1="113.56" x2="241.09" y2="132.14" xlink:href="#linear-gradient-2"/><radialGradient id="radial-gradient-87" cx="536.37" cy="332.87" r="3.17" xlink:href="#radial-gradient-4"/><radialGradient id="radial-gradient-88" cx="537.05" cy="322.14" r="3.17" gradientTransform="matrix(1, 0, 0, 1, 0, 0)" xlink:href="#radial-gradient-5"/><radialGradient id="radial-gradient-89" cx="240.95" cy="131.87" r="14.99" xlink:href="#radial-gradient-14"/></defs><g class="cls-2"><g id="Layer_1" data-name="Layer 1"><g class="cls-3"><image width="4032" height="3024" transform="translate(0 0) scale(0.24)" xlink:href="profile1.png"/></g><ellipse class="cls-4" cx="436.45" cy="446.59" rx="130.58" ry="33.4"/><path class="cls-5" d="M223.78,157.26a77,77,0,1,1-77-77A77,77,0,0,1,223.78,157.26Z" transform="translate(285.78 194.29)"/><path class="cls-6" d="M223.78,157.26a77,77,0,1,1-77-77A77,77,0,0,1,223.78,157.26Z" transform="translate(285.78 194.29)"/><path class="cls-7" d="M151,231.31A76.55,76.55,0,0,1,93,104.71a74.81,74.81,0,0,0,70.88,125.5A76.84,76.84,0,0,1,151,231.31Z" transform="translate(285.78 194.29)"/><path class="cls-8" d="M146.8,84.24A75.19,75.19,0,0,1,222,157.91c0-.51,0-1,0-1.52a75.19,75.19,0,1,0-150.38,0c0,.51,0,1,0,1.52A75.17,75.17,0,0,1,146.8,84.24Z" transform="translate(285.78 194.29)"/><circle class="cls-9" cx="481.51" cy="386.07" r="16.34"/><circle class="cls-10" cx="199.26" cy="136.45" r="16.34" transform="translate(282.26 199.58) rotate(-1.51)"/><path class="cls-11" d="M223.77,156.26a77,77,0,1,1-124-60.92h0a77,77,0,0,1,124,60.93Z" transform="translate(285.78 194.29)"/><path class="cls-12" d="M258.06,158.06a28.72,28.72,0,1,1-28.72-28.73A28.72,28.72,0,0,1,258.06,158.06Z" transform="translate(285.78 194.29)"/><path class="cls-13" d="M258.06,158.06a28.72,28.72,0,1,1-28.72-28.73A28.72,28.72,0,0,1,258.06,158.06Z" transform="translate(285.78 194.29)"/><path class="cls-14" d="M258.06,158.05a28.72,28.72,0,1,1-57.44,0,28.16,28.16,0,0,1,.46-5.14,28.65,28.65,0,0,1,10.7-17.58h0a28.72,28.72,0,0,1,46.28,22.73Z" transform="translate(285.78 194.29)"/><path class="cls-15" d="M258.06,158.05a28.72,28.72,0,1,1-57.44,0,28.16,28.16,0,0,1,.46-5.14,28.65,28.65,0,0,1,10.7-17.58h0a28.72,28.72,0,0,1,46.28,22.73Z" transform="translate(285.78 194.29)"/><path class="cls-16" d="M258.06,158.05a28.72,28.72,0,1,1-57.44,0,28.16,28.16,0,0,1,.46-5.14,28.65,28.65,0,0,1,10.7-17.58h0a28.72,28.72,0,0,1,46.28,22.73Z" transform="translate(285.78 194.29)"/><path class="cls-17" d="M255.46,150.11a28.73,28.73,0,0,1-54.38,6.8,28.73,28.73,0,0,1,54.38-6.8Z" transform="translate(285.78 194.29)"/><path class="cls-18" d="M230.89,185.69a28.57,28.57,0,0,1-21.61-47.24A27.92,27.92,0,0,0,229,186.09a28.45,28.45,0,0,0,6.7-.81A28.65,28.65,0,0,1,230.89,185.69Z" transform="translate(285.78 194.29)"/><path class="cls-19" d="M229.34,130.81a28.05,28.05,0,0,1,28,27.49c0-.19,0-.38,0-.57a28.06,28.06,0,1,0-56.12,0c0,.19,0,.38,0,.57A28,28,0,0,1,229.34,130.81Z" transform="translate(285.78 194.29)"/><path class="cls-20" d="M205.68,183.35c-4.29.47-8.81-8.77-10.11-20.64s1.14-21.86,5.43-22.33,8.81,8.77,10.11,20.64S210,182.88,205.68,183.35Z" transform="translate(285.78 194.29)"/><path class="cls-21" d="M255,150.29a6.1,6.1,0,1,1-6.1-6.1A6.1,6.1,0,0,1,255,150.29Z" transform="translate(285.78 194.29)"/><path class="cls-22" d="M258.06,158.05a28.72,28.72,0,1,1-57.44,0,28.16,28.16,0,0,1,.46-5.14,28.65,28.65,0,0,1,10.7-17.58h0a28.72,28.72,0,0,1,46.28,22.73Z" transform="translate(285.78 194.29)"/><path class="cls-23" d="M102.31,67.26A21.37,21.37,0,1,1,80.94,45.89,21.37,21.37,0,0,1,102.31,67.26Z" transform="translate(285.78 194.29)"/><path class="cls-24" d="M102.31,67.26A21.37,21.37,0,1,1,80.94,45.89,21.37,21.37,0,0,1,102.31,67.26Z" transform="translate(285.78 194.29)"/><path class="cls-25" d="M102.3,67.25a21.36,21.36,0,1,1-42.72,0,21.88,21.88,0,0,1,.34-3.82,21.35,21.35,0,0,1,8-13.08h0a21.35,21.35,0,0,1,34.41,16.9Z" transform="translate(285.78 194.29)"/><path class="cls-26" d="M102.3,67.25a21.36,21.36,0,1,1-42.72,0,21.88,21.88,0,0,1,.34-3.82,21.35,21.35,0,0,1,8-13.08h0a21.35,21.35,0,0,1,34.41,16.9Z" transform="translate(285.78 194.29)"/><path class="cls-27" d="M102.3,67.25a21.36,21.36,0,1,1-42.72,0,21.88,21.88,0,0,1,.34-3.82,21.35,21.35,0,0,1,8-13.08h0a21.35,21.35,0,0,1,34.41,16.9Z" transform="translate(285.78 194.29)"/><path class="cls-28" d="M102.3,67.25A21.26,21.26,0,0,1,99.52,77.8,21.36,21.36,0,0,1,67.88,50.35h0a21.35,21.35,0,0,1,34.41,16.9Z" transform="translate(285.78 194.29)"/><path class="cls-29" d="M100.37,58.37a21.37,21.37,0,0,1-40.45,5.06,21.37,21.37,0,0,1,40.45-5.06Z" transform="translate(285.78 194.29)"/><path class="cls-30" d="M82.1,87.81A21.25,21.25,0,0,1,66,52.67,20.76,20.76,0,0,0,85.69,87.5,21.21,21.21,0,0,1,82.1,87.81Z" transform="translate(285.78 194.29)"/><path class="cls-31" d="M80.94,47A20.87,20.87,0,0,1,101.8,67.44c0-.15,0-.29,0-.43a20.87,20.87,0,0,0-41.73,0c0,.14,0,.28,0,.43A20.86,20.86,0,0,1,80.94,47Z" transform="translate(285.78 194.29)"/><path class="cls-32" d="M99.06,76.83a4.54,4.54,0,1,1-4.54-4.53A4.54,4.54,0,0,1,99.06,76.83Z" transform="translate(285.78 194.29)"/><path class="cls-33" d="M100,61.48a4.54,4.54,0,1,1-4.54-4.54A4.53,4.53,0,0,1,100,61.48Z" transform="translate(285.78 194.29)"/><path class="cls-34" d="M102.3,67.25a21.36,21.36,0,1,1-42.72,0,21.88,21.88,0,0,1,.34-3.82,21.35,21.35,0,0,1,8-13.08h0a21.35,21.35,0,0,1,34.41,16.9Z" transform="translate(285.78 194.29)"/><path class="cls-35" d="M128.16,143.21a14,14,0,1,1-14-14A14,14,0,0,1,128.16,143.21Z" transform="translate(285.78 194.29)"/><path class="cls-36" d="M128.16,143.21a14,14,0,1,1-14-14A14,14,0,0,1,128.16,143.21Z" transform="translate(285.78 194.29)"/><path class="cls-37" d="M128.16,143.21a14,14,0,1,1-22.57-11.08h0a14,14,0,0,1,22.56,11.08Z" transform="translate(285.78 194.29)"/><path class="cls-38" d="M128.16,143.21a14,14,0,1,1-22.57-11.08h0a14,14,0,0,1,22.56,11.08Z" transform="translate(285.78 194.29)"/><path class="cls-39" d="M128.16,143.21a14,14,0,1,1-22.57-11.08h0a14,14,0,0,1,22.56,11.08Z" transform="translate(285.78 194.29)"/><path class="cls-40" d="M128.16,143.21a13.92,13.92,0,0,1-1.83,6.91,14,14,0,0,1-20.74-18h0a14,14,0,0,1,22.56,11.08Z" transform="translate(285.78 194.29)"/><path class="cls-41" d="M126.89,137.39a14,14,0,0,1-26.51,3.31,14,14,0,0,1,26.51-3.31Z" transform="translate(285.78 194.29)"/><path class="cls-42" d="M114.91,156.68a13.93,13.93,0,0,1-10.54-23,13.61,13.61,0,0,0,12.9,22.83A13.11,13.11,0,0,1,114.91,156.68Z" transform="translate(285.78 194.29)"/><path class="cls-43" d="M114.16,129.93a13.67,13.67,0,0,1,13.67,13.4v-.28a13.68,13.68,0,0,0-27.35,0v.28A13.68,13.68,0,0,1,114.16,129.93Z" transform="translate(285.78 194.29)"/><path class="cls-44" d="M120.51,129.73c0,1.2-2.68,2.17-6,2.17s-6-1-6-2.17,2.69-2.16,6-2.16S120.51,128.54,120.51,129.73Z" transform="translate(285.78 194.29)"/><path class="cls-45" d="M102.62,155.55c-2.09.22-4.3-4.28-4.93-10.07s.55-10.66,2.65-10.89,4.3,4.28,4.93,10.07S104.71,155.32,102.62,155.55Z" transform="translate(285.78 194.29)"/><path class="cls-46" d="M126,149.49a3,3,0,1,1-3-3A3,3,0,0,1,126,149.49Z" transform="translate(285.78 194.29)"/><path class="cls-47" d="M126.67,139.43a3,3,0,1,1-3-3A3,3,0,0,1,126.67,139.43Z" transform="translate(285.78 194.29)"/><path class="cls-48" d="M129.88,143.6a4.82,4.82,0,1,1-4.82-4.83A4.82,4.82,0,0,1,129.88,143.6Z" transform="translate(285.78 194.29)"/><path class="cls-49" d="M128.16,143.21a14,14,0,1,1-22.57-11.08h0a14,14,0,0,1,22.56,11.08Z" transform="translate(285.78 194.29)"/><path class="cls-50" d="M134.66,40a12.45,12.45,0,1,1-12.45-12.45A12.45,12.45,0,0,1,134.66,40Z" transform="translate(285.78 194.29)"/><path class="cls-51" d="M134.66,40a12.45,12.45,0,1,1-12.45-12.45A12.45,12.45,0,0,1,134.66,40Z" transform="translate(285.78 194.29)"/><path class="cls-52" d="M134.66,40a12.45,12.45,0,0,1-24.9,0,12.58,12.58,0,0,1,.2-2.23,12.45,12.45,0,0,1,4.64-7.62h0A12.45,12.45,0,0,1,134.66,40Z" transform="translate(285.78 194.29)"/><path class="cls-53" d="M134.66,40a12.45,12.45,0,0,1-24.9,0,12.58,12.58,0,0,1,.2-2.23,12.45,12.45,0,0,1,4.64-7.62h0A12.45,12.45,0,0,1,134.66,40Z" transform="translate(285.78 194.29)"/><path class="cls-54" d="M134.66,40a12.45,12.45,0,0,1-24.9,0,12.58,12.58,0,0,1,.2-2.23,12.45,12.45,0,0,1,4.64-7.62h0A12.45,12.45,0,0,1,134.66,40Z" transform="translate(285.78 194.29)"/><path class="cls-55" d="M134.66,40A12.39,12.39,0,0,1,133,46.15a12.45,12.45,0,0,1-18.44-16h0A12.45,12.45,0,0,1,134.66,40Z" transform="translate(285.78 194.29)"/><path class="cls-56" d="M133.53,34.83a12.45,12.45,0,0,1-23.57,3,12.45,12.45,0,0,1,23.57-3Z" transform="translate(285.78 194.29)"/><path class="cls-57" d="M122.88,52a12.39,12.39,0,0,1-9.36-20.48A12.1,12.1,0,0,0,125,51.81,13.12,13.12,0,0,1,122.88,52Z" transform="translate(285.78 194.29)"/><path class="cls-58" d="M122.21,28.2a12.16,12.16,0,0,1,12.15,11.92,2.18,2.18,0,0,0,0-.25,12.16,12.16,0,0,0-24.32,0c0,.08,0,.16,0,.25A12.16,12.16,0,0,1,122.21,28.2Z" transform="translate(285.78 194.29)"/><path class="cls-59" d="M132.77,45.59A2.65,2.65,0,1,1,130.12,43,2.65,2.65,0,0,1,132.77,45.59Z" transform="translate(285.78 194.29)"/><circle class="cls-60" cx="416.48" cy="230.94" r="2.64"/><path class="cls-61" d="M134.66,40a12.45,12.45,0,0,1-24.9,0,12.58,12.58,0,0,1,.2-2.23,12.45,12.45,0,0,1,4.64-7.62h0A12.45,12.45,0,0,1,134.66,40Z" transform="translate(285.78 194.29)"/><path class="cls-62" d="M128.58,194.91a42.81,42.81,0,1,1-42.81-42.8A42.81,42.81,0,0,1,128.58,194.91Z" transform="translate(285.78 194.29)"/><path class="cls-63" d="M128.58,194.91a42.81,42.81,0,1,1-42.81-42.8A42.81,42.81,0,0,1,128.58,194.91Z" transform="translate(285.78 194.29)"/><path class="cls-64" d="M128.57,194.91a42.8,42.8,0,1,1-85.6,0,42.16,42.16,0,0,1,.69-7.67A42.75,42.75,0,0,1,59.6,161h0a42.79,42.79,0,0,1,69,33.88Z" transform="translate(285.78 194.29)"/><path class="cls-65" d="M128.57,194.91a42.8,42.8,0,1,1-85.6,0,42.16,42.16,0,0,1,.69-7.67A42.75,42.75,0,0,1,59.6,161h0a42.79,42.79,0,0,1,69,33.88Z" transform="translate(285.78 194.29)"/><path class="cls-66" d="M128.57,194.91a42.8,42.8,0,1,1-85.6,0,42.16,42.16,0,0,1,.69-7.67A42.75,42.75,0,0,1,59.6,161h0a42.79,42.79,0,0,1,69,33.88Z" transform="translate(285.78 194.29)"/><path class="cls-67" d="M128.57,194.91A42.59,42.59,0,0,1,123,216a42.8,42.8,0,0,1-63.4-55h0a42.79,42.79,0,0,1,69,33.88Z" transform="translate(285.78 194.29)"/><path class="cls-68" d="M124.7,177.11a42.81,42.81,0,0,1-81,10.13,42.81,42.81,0,0,1,81-10.13Z" transform="translate(285.78 194.29)"/><path class="cls-69" d="M88.09,236.09a42.57,42.57,0,0,1-32.21-70.4,41.61,41.61,0,0,0,39.41,69.79A42.75,42.75,0,0,1,88.09,236.09Z" transform="translate(285.78 194.29)"/><path class="cls-70" d="M85.77,154.31a41.8,41.8,0,0,1,41.79,41c0-.28,0-.56,0-.84a41.81,41.81,0,0,0-83.62,0c0,.28,0,.56,0,.84A41.82,41.82,0,0,1,85.77,154.31Z" transform="translate(285.78 194.29)"/><circle class="cls-71" cx="112.98" cy="214.11" r="9.09" transform="translate(179.75 511.56) rotate(-87.4)"/><circle class="cls-72" cx="114.94" cy="183.34" r="9.09" transform="translate(212.36 484.15) rotate(-87.4)"/><circle class="cls-73" cx="404.89" cy="390.38" r="14.75"/><path class="cls-74" d="M128.57,194.91a42.8,42.8,0,1,1-85.6,0,42.16,42.16,0,0,1,.69-7.67A42.75,42.75,0,0,1,59.6,161h0a42.79,42.79,0,0,1,69,33.88Z" transform="translate(285.78 194.29)"/><path class="cls-75" d="M171,90.21a31.44,31.44,0,1,1-31.43-31.43A31.43,31.43,0,0,1,171,90.21Z" transform="translate(285.78 194.29)"/><path class="cls-76" d="M171,90.21a31.44,31.44,0,1,1-31.43-31.43A31.43,31.43,0,0,1,171,90.21Z" transform="translate(285.78 194.29)"/><path class="cls-77" d="M171,90.21a31.44,31.44,0,1,1-62.87,0,31.44,31.44,0,0,1,12.22-24.87h0A31.43,31.43,0,0,1,171,90.21Z" transform="translate(285.78 194.29)"/><path class="cls-78" d="M171,90.21a31.44,31.44,0,1,1-62.87,0,31.44,31.44,0,0,1,12.22-24.87h0A31.43,31.43,0,0,1,171,90.21Z" transform="translate(285.78 194.29)"/><path class="cls-79" d="M171,90.21a31.44,31.44,0,1,1-62.87,0,31.44,31.44,0,0,1,12.22-24.87h0A31.43,31.43,0,0,1,171,90.21Z" transform="translate(285.78 194.29)"/><path class="cls-80" d="M171,90.21a31.35,31.35,0,0,1-4.09,15.52,31.43,31.43,0,0,1-46.56-40.39h0A31.43,31.43,0,0,1,171,90.21Z" transform="translate(285.78 194.29)"/><path class="cls-81" d="M168.14,77.14a31.44,31.44,0,0,1-59.52,7.44,31.44,31.44,0,0,1,59.52-7.44Z" transform="translate(285.78 194.29)"/><path class="cls-82" d="M141.25,120.46a31.27,31.27,0,0,1-23.66-51.7,30.55,30.55,0,0,0,21.62,52.14,31,31,0,0,0,7.33-.89A31.82,31.82,0,0,1,141.25,120.46Z" transform="translate(285.78 194.29)"/><path class="cls-83" d="M139.55,60.4a30.69,30.69,0,0,1,30.69,30.08c0-.21,0-.41,0-.62a30.71,30.71,0,1,0-61.41,0c0,.21,0,.41,0,.62A30.69,30.69,0,0,1,139.55,60.4Z" transform="translate(285.78 194.29)"/><circle class="cls-84" cx="445.31" cy="298.6" r="6.67"/><path class="cls-85" d="M167.64,81.72A6.67,6.67,0,1,1,161,75,6.67,6.67,0,0,1,167.64,81.72Z" transform="translate(285.78 194.29)"/><circle class="cls-86" cx="449.81" cy="285.37" r="10.83"/><path class="cls-87" d="M171,90.21a31.44,31.44,0,1,1-62.87,0,31.44,31.44,0,0,1,12.22-24.87h0A31.43,31.43,0,0,1,171,90.21Z" transform="translate(285.78 194.29)"/><path class="cls-88" d="M239.28,102.21A6.32,6.32,0,1,1,233,95.89,6.32,6.32,0,0,1,239.28,102.21Z" transform="translate(285.78 194.29)"/><path class="cls-89" d="M239.28,102.21A6.32,6.32,0,1,1,233,95.89,6.32,6.32,0,0,1,239.28,102.21Z" transform="translate(285.78 194.29)"/><path class="cls-90" d="M239.28,102.21a6.32,6.32,0,0,1-12.63,0,5.94,5.94,0,0,1,.1-1.13,6.3,6.3,0,0,1,2.35-3.87h0a6.32,6.32,0,0,1,9.61,2.37A6.4,6.4,0,0,1,239.28,102.21Z" transform="translate(285.78 194.29)"/><path class="cls-91" d="M239.28,102.21a6.32,6.32,0,0,1-12.63,0,5.94,5.94,0,0,1,.1-1.13,6.3,6.3,0,0,1,2.35-3.87h0a6.32,6.32,0,0,1,9.61,2.37A6.4,6.4,0,0,1,239.28,102.21Z" transform="translate(285.78 194.29)"/><path class="cls-92" d="M239.28,102.21a6.32,6.32,0,0,1-12.63,0,5.94,5.94,0,0,1,.1-1.13,6.3,6.3,0,0,1,2.35-3.87h0a6.32,6.32,0,0,1,9.61,2.37A6.4,6.4,0,0,1,239.28,102.21Z" transform="translate(285.78 194.29)"/><path class="cls-93" d="M239.28,102.21a6.3,6.3,0,0,1-.82,3.11,6.32,6.32,0,0,1-9.36-8.11h0a6.32,6.32,0,0,1,9.61,2.37A6.4,6.4,0,0,1,239.28,102.21Z" transform="translate(285.78 194.29)"/><path class="cls-94" d="M238.71,99.58a6.32,6.32,0,0,1-12,1.5,6.32,6.32,0,0,1,12-1.5Z" transform="translate(285.78 194.29)"/><path class="cls-95" d="M233.31,108.28a6.28,6.28,0,0,1-4.76-10.38,6.14,6.14,0,0,0,4.35,10.47,6,6,0,0,0,1.47-.18A6.23,6.23,0,0,1,233.31,108.28Z" transform="translate(285.78 194.29)"/><path class="cls-96" d="M233,96.22a6.17,6.17,0,0,1,6.17,6v-.13a6.17,6.17,0,0,0-12.33,0v.13A6.16,6.16,0,0,1,233,96.22Z" transform="translate(285.78 194.29)"/><path class="cls-97" d="M238.32,105A1.34,1.34,0,1,1,237,103.7,1.34,1.34,0,0,1,238.32,105Z" transform="translate(285.78 194.29)"/><path class="cls-98" d="M238.61,100.5a1.34,1.34,0,1,1-1.34-1.34A1.34,1.34,0,0,1,238.61,100.5Z" transform="translate(285.78 194.29)"/><path class="cls-99" d="M239.28,102.21a6.32,6.32,0,0,1-12.63,0,5.94,5.94,0,0,1,.1-1.13,6.3,6.3,0,0,1,2.35-3.87h0a6.32,6.32,0,0,1,9.61,2.37A6.4,6.4,0,0,1,239.28,102.21Z" transform="translate(285.78 194.29)"/><path class="cls-100" d="M256,131.87a14.93,14.93,0,1,1-14.92-14.93A14.92,14.92,0,0,1,256,131.87Z" transform="translate(285.78 194.29)"/><path class="cls-101" d="M256,131.87a14.93,14.93,0,1,1-14.92-14.93A14.92,14.92,0,0,1,256,131.87Z" transform="translate(285.78 194.29)"/><path class="cls-102" d="M256,131.87a14.93,14.93,0,0,1-29.85,0,15.71,15.71,0,0,1,.24-2.68,14.94,14.94,0,0,1,5.56-9.13h0a14.92,14.92,0,0,1,24,11.81Z" transform="translate(285.78 194.29)"/><path class="cls-103" d="M256,131.87a14.93,14.93,0,0,1-29.85,0,15.71,15.71,0,0,1,.24-2.68,14.94,14.94,0,0,1,5.56-9.13h0a14.92,14.92,0,0,1,24,11.81Z" transform="translate(285.78 194.29)"/><path class="cls-104" d="M256,131.87a14.93,14.93,0,0,1-29.85,0,15.71,15.71,0,0,1,.24-2.68,14.94,14.94,0,0,1,5.56-9.13h0a14.92,14.92,0,0,1,24,11.81Z" transform="translate(285.78 194.29)"/><path class="cls-105" d="M256,131.87a14.88,14.88,0,0,1-1.94,7.36A14.93,14.93,0,0,1,232,120.06h0a14.92,14.92,0,0,1,24,11.81Z" transform="translate(285.78 194.29)"/><path class="cls-106" d="M254.66,125.66a14.93,14.93,0,0,1-28.26,3.53,14.93,14.93,0,0,1,28.26-3.53Z" transform="translate(285.78 194.29)"/><path class="cls-107" d="M241.89,146.22a14.84,14.84,0,0,1-11.23-24.54,14.5,14.5,0,0,0,10.27,24.75,14.29,14.29,0,0,0,3.48-.42A15,15,0,0,1,241.89,146.22Z" transform="translate(285.78 194.29)"/><path class="cls-108" d="M241.09,117.71A14.58,14.58,0,0,1,255.66,132c0-.09,0-.19,0-.29a14.58,14.58,0,1,0-29.16,0c0,.1,0,.2,0,.29A14.58,14.58,0,0,1,241.09,117.71Z" transform="translate(285.78 194.29)"/><circle class="cls-109" cx="536.35" cy="332.85" r="3.17"/><circle class="cls-110" cx="537.04" cy="322.13" r="3.17"/><path class="cls-111" d="M256,131.87a14.93,14.93,0,0,1-29.85,0,15.71,15.71,0,0,1,.24-2.68,14.94,14.94,0,0,1,5.56-9.13h0a14.92,14.92,0,0,1,24,11.81Z" transform="translate(285.78 194.29)"/></g></g></svg>