<svg id="Capa_1" data-name="Capa 1" xmlns="http://www.w3.org/2000/svg" viewBox="0 0 2681.1 2664.5"><defs><style>.cls-1{fill:#0096d9;}.cls-2{fill:#fff;}</style></defs><path class="cls-1" d="M5205,189" transform="translate(-707.45 -223.75)"/><path class="cls-2" d="M2040.51,1557.07h29.16q-21.52-1.6-43.34-2.14A47.18,47.18,0,0,0,2040.51,1557.07Z" transform="translate(-707.45 -223.75)"/><path class="cls-2" d="M2040.1,1554.84a48.64,48.64,0,0,0-14.95,2.32q23-.56,45.7-2.32Z" transform="translate(-707.45 -223.75)"/><path class="cls-2" d="M2062.25,1557.84a44.85,44.85,0,0,0,18.06-3.68q-32.62.61-64.62,3.68Z" transform="translate(-707.45 -223.75)"/><path class="cls-2" d="M2066.23,1553.62h-56.75q38,4.1,77,4.76A44,44,0,0,0,2066.23,1553.62Z" transform="translate(-707.45 -223.75)"/><path class="cls-2" d="M741.91,1801.06h576.27q6.79-22.39,12.4-45.27a842.08,842.08,0,0,0,22.72-156.62q1.08-21.39,1.08-43.05t-1.08-43a840.42,840.42,0,0,0-35.08-201.89H741.91c-19,0-34.46,11-34.46,24.46v441C707.45,1790.1,722.88,1801.06,741.91,1801.06Z" transform="translate(-707.45 -223.75)"/><path class="cls-2" d="M1376.77,403.73c-192.5-112-415.64-177.26-653.79-180-9.36,4.45-15.53,12-15.53,20.61V691.15c0,10.1,8.53,18.77,20.74,22.63q21.81.53,43.33,2.15C1206.94,748.67,1550,1112.32,1550,1556.12c0,443.07-342,806.26-776.4,840q-22.68,1.77-45.7,2.32c-12.09,3.91-20.49,12.4-20.49,22.27V2864c0,12.2,12.83,22.3,29.64,24.23q61.35-1.35,121.25-8.11a1324,1324,0,0,0,534.25-181c348.69-209.46,593.64-574,639.51-998.15a1346.15,1346.15,0,0,0,7.82-144.88C2039.92,1064.2,1773.34,634.56,1376.77,403.73Z" transform="translate(-707.45 -223.75)"/><path class="cls-2" d="M3307.53,717.39q32-3.06,64.63-3.69c9.82-4.34,16.39-12.09,16.39-21V248.3c0-12.33-12.67-22.52-29.21-24.33a1337.43,1337.43,0,0,0-202.08,19.71,1323.26,1323.26,0,0,0-411.79,145.18C2394.3,582.74,2140,930.49,2073.35,1341.2a1341.45,1341.45,0,0,0-17.27,214.92c0,502.7,278.4,940.37,689.42,1167.28,182.73,100.88,391.66,160.09,614,164.85,16.45-1.86,29.05-12.05,29.05-24.37V2418.51c0-8.19-5.6-15.44-14.17-19.93q-39-.64-77-4.77C2874.89,2348.34,2546,1990.65,2546,1556.12,2546,1118.1,2880.19,758.16,3307.53,717.39Z" transform="translate(-707.45 -223.75)"/></svg>